<svg xmlns:dc="http://purl.org/dc/elements/1.1/" xmlns:cc="http://creativecommons.org/ns#" xmlns:rdf="http://www.w3.org/1999/02/22-rdf-syntax-ns#" xmlns:svg="http://www.w3.org/2000/svg" xmlns="http://www.w3.org/2000/svg" xmlns:xlink="http://www.w3.org/1999/xlink" id="svg515215" viewBox="0 0 1024 768" height="768px" width="1024px" version="1.1">
  <metadata id="metadata515221">
    <rdf:rdf>
      <cc:work rdf:about="">
        <dc:format>image/svg+xml</dc:format>
        <dc:type rdf:resource="http://purl.org/dc/dcmitype/StillImage"></dc:type>
      </cc:work>
    </rdf:rdf>
  </metadata>
  <defs id="defs515219"></defs>
  <linearGradient spreadMethod="pad" y2="30%" x2="-10%" y1="120%" x1="30%" id="3d_gradient2-logo-c63045cc-8e61-4b63-8f1d-a22a25c0a484">
    <stop id="stop515196" stop-opacity="1" stop-color="#ffffff" offset="0%"></stop>
    <stop id="stop515198" stop-opacity="1" stop-color="#000000" offset="100%"></stop>
  </linearGradient>
  <linearGradient gradientTransform="rotate(-30)" spreadMethod="pad" y2="30%" x2="-10%" y1="120%" x1="30%" id="3d_gradient3-logo-c63045cc-8e61-4b63-8f1d-a22a25c0a484">
    <stop id="stop515201" stop-opacity="1" stop-color="#ffffff" offset="0%"></stop>
    <stop id="stop515203" stop-opacity="1" stop-color="#cccccc" offset="50%"></stop>
    <stop id="stop515205" stop-opacity="1" stop-color="#000000" offset="100%"></stop>
  </linearGradient>
  <g id="logo-group">
    <image xlink:href="" id="container" style="display: none;" x="272" y="144" width="480" height="480" transform="translate(0 0)"></image>
    <g id="logo-center" transform="translate(0 0)">
      <image xlink:href="" id="icon_container" style="display: none;" x="0" y="0"></image>
      <g id="slogan" style="font-style:normal;font-weight:300;font-size:32px;line-height:1;font-family:Montserrat;font-variant-ligatures:none;text-align:center;text-anchor:middle" transform="translate(0 0)">
        <path id="path515223" style="font-style:normal;font-weight:300;font-size:32px;line-height:1;font-family:Montserrat;font-variant-ligatures:none;text-align:center;text-anchor:middle" d="m 152.99475,-17.824 q -1.344,-1.312 -3.104,-2.048 -1.76,-0.736 -3.648,-0.736 -2.592,0 -4.768,1.248 -2.144,1.248 -3.424,3.424 -1.248,2.144 -1.248,4.704 0,2.56 1.248,4.704 1.28,2.144 3.424,3.424 2.176,1.248 4.768,1.248 1.856,0 3.616,-0.704 1.76,-0.736 3.136,-2.016 l 1.344,1.44 q -1.664,1.536 -3.808,2.432 -2.144,0.896 -4.384,0.896 -3.168,0 -5.824,-1.536 -2.656,-1.536 -4.224,-4.16 -1.536,-2.624 -1.536,-5.728 0,-3.104 1.568,-5.696 1.568,-2.592 4.224,-4.096 2.688,-1.536 5.856,-1.536 2.272,0 4.384,0.864 2.112,0.832 3.712,2.336 z" stroke-width="0" stroke-linejoin="miter" stroke-miterlimit="2" fill="#820f0a" stroke="#820f0a" transform="translate(1.7053025658242404e-13 362.01300000000003) translate(229.034375 57.048) scale(0.75) translate(-134.56275 22.56)"></path>
        <path id="path515225" style="font-style:normal;font-weight:300;font-size:32px;line-height:1;font-family:Montserrat;font-variant-ligatures:none;text-align:center;text-anchor:middle" d="m 164.94975,-16.832 q 2.432,0 4.352,1.088 1.92,1.056 3.008,2.976 1.088,1.92 1.088,4.352 0,2.464 -1.088,4.416 -1.088,1.92 -3.008,3.008 -1.92,1.056 -4.352,1.056 -2.432,0 -4.352,-1.056 -1.92,-1.088 -3.008,-3.008 -1.088,-1.952 -1.088,-4.416 0,-2.432 1.088,-4.352 1.088,-1.92 3.008,-2.976 1.92,-1.088 4.352,-1.088 z m 0,1.856 q -1.824,0 -3.264,0.832 -1.44,0.832 -2.24,2.336 -0.8,1.504 -0.8,3.424 0,1.952 0.8,3.456 0.8,1.504 2.24,2.336 1.44,0.832 3.264,0.832 1.824,0 3.264,-0.832 1.44,-0.832 2.24,-2.336 0.8,-1.504 0.8,-3.456 0,-1.92 -0.8,-3.424 -0.8,-1.504 -2.24,-2.336 -1.44,-0.832 -3.264,-0.832 z" stroke-width="0" stroke-linejoin="miter" stroke-miterlimit="2" fill="#820f0a" stroke="#820f0a" transform="translate(1.7053025658242404e-13 362.01300000000003) translate(245.48862499999998 61.343999999999994) scale(0.75) translate(-156.50175 16.832)"></path>
        <path id="path515227" style="font-style:normal;font-weight:300;font-size:32px;line-height:1;font-family:Montserrat;font-variant-ligatures:none;text-align:center;text-anchor:middle" d="m 186.68525,-16.832 q 3.008,0 4.704,1.76 1.728,1.728 1.728,4.768 V 0 h -2.176 v -9.792 q 0,-2.368 -1.312,-3.712 -1.312,-1.344 -3.648,-1.344 -2.592,0.032 -4.16,1.6 -1.536,1.568 -1.76,4.224 V 0 h -2.144 v -16.768 h 2.144 v 3.904 q 0.864,-1.952 2.528,-2.944 1.696,-0.992 4.096,-1.024 z" stroke-width="0" stroke-linejoin="miter" stroke-miterlimit="2" fill="#820f0a" stroke="#820f0a" transform="translate(1.7053025658242404e-13 362.01300000000003) translate(261.55025 61.343999999999994) scale(0.75) translate(-177.91725 16.832)"></path>
        <path id="path515229" style="font-style:normal;font-weight:300;font-size:32px;line-height:1;font-family:Montserrat;font-variant-ligatures:none;text-align:center;text-anchor:middle" d="m 207.52675,-13.792 q -0.96,-0.608 -2.144,-0.928 -1.184,-0.352 -2.336,-0.352 -1.6,0 -2.592,0.64 -0.96,0.608 -0.96,1.856 0,0.864 0.512,1.408 0.544,0.544 1.312,0.896 0.8,0.32 2.208,0.736 1.728,0.512 2.816,1.024 1.088,0.48 1.856,1.44 0.768,0.928 0.768,2.464 0,2.272 -1.728,3.488 -1.728,1.184 -4.32,1.184 -1.824,0 -3.52,-0.608 -1.696,-0.608 -2.848,-1.728 l 0.864,-1.536 q 1.088,0.992 2.56,1.568 1.504,0.576 3.04,0.576 1.696,0 2.752,-0.704 1.088,-0.704 1.088,-2.048 0,-0.928 -0.544,-1.504 -0.544,-0.608 -1.376,-0.928 -0.8,-0.352 -2.24,-0.8 -1.696,-0.512 -2.752,-0.992 -1.056,-0.48 -1.792,-1.376 -0.736,-0.928 -0.736,-2.4 0,-2.208 1.632,-3.328 1.664,-1.12 4.128,-1.12 1.44,0 2.784,0.384 1.344,0.384 2.4,1.056 z" stroke-width="0" stroke-linejoin="miter" stroke-miterlimit="2" fill="#820f0a" stroke="#820f0a" transform="translate(1.7053025658242404e-13 362.01300000000003) translate(275.525375 61.32000000000001) scale(0.75) translate(-196.55075 16.864)"></path>
        <path id="path515231" style="font-style:normal;font-weight:300;font-size:32px;line-height:1;font-family:Montserrat;font-variant-ligatures:none;text-align:center;text-anchor:middle" d="m 221.67775,-1.152 q -1.728,1.184 -3.712,1.248 -1.92,0 -3.04,-1.184 -1.12,-1.184 -1.12,-3.552 v -9.984 h -2.4 l -0.032,-1.664 h 2.432 v -4.32 h 2.144 v 4.32 l 5.44,-0.032 v 1.696 h -5.44 v 9.632 q 0,3.104 2.304,3.104 1.28,0 2.784,-0.896 z" stroke-width="0" stroke-linejoin="miter" stroke-miterlimit="2" fill="#820f0a" stroke="#820f0a" transform="translate(1.7053025658242404e-13 362.01300000000003) translate(286.642625 58.512) scale(0.75) translate(-211.37375 20.608)"></path>
        <path id="path515233" style="font-style:normal;font-weight:300;font-size:32px;line-height:1;font-family:Montserrat;font-variant-ligatures:none;text-align:center;text-anchor:middle" d="m 227.68625,-12.864 q 0.832,-1.92 2.368,-2.912 1.568,-1.024 3.744,-1.056 v 2.016 q -2.656,-0.032 -4.288,1.568 -1.6,1.568 -1.824,4.288 V 0 h -2.144 v -16.768 h 2.144 z" stroke-width="0" stroke-linejoin="miter" stroke-miterlimit="2" fill="#820f0a" stroke="#820f0a" transform="translate(1.7053025658242404e-13 362.01300000000003) translate(297.269 61.343999999999994) scale(0.75) translate(-225.54225 16.832)"></path>
        <path id="path515235" style="font-style:normal;font-weight:300;font-size:32px;line-height:1;font-family:Montserrat;font-variant-ligatures:none;text-align:center;text-anchor:middle" d="M 251.62975,-16.768 V 0 h -2.176 v -4 q -0.832,1.984 -2.496,3.008 -1.632,1.024 -3.968,1.056 -2.976,0 -4.672,-1.728 -1.664,-1.76 -1.664,-4.8 v -10.304 h 2.176 v 9.792 q 0,2.368 1.28,3.712 1.312,1.312 3.584,1.312 2.688,-0.032 4.224,-1.824 1.536,-1.824 1.536,-4.768 v -8.224 z" stroke-width="0" stroke-linejoin="miter" stroke-miterlimit="2" fill="#820f0a" stroke="#820f0a" transform="translate(1.7053025658242404e-13 362.01300000000003) translate(305.602625 61.391999999999996) scale(0.75) translate(-236.65375 16.768)"></path>
        <path id="path515237" style="font-style:normal;font-weight:300;font-size:32px;line-height:1;font-family:Montserrat;font-variant-ligatures:none;text-align:center;text-anchor:middle" d="m 257.85475,-16.768 h 2.144 V 0 h -2.144 z m 1.088,-6.336 q 0.64,0 1.056,0.448 0.416,0.416 0.416,1.056 0,0.64 -0.448,1.088 -0.416,0.448 -1.024,0.448 -0.64,0 -1.088,-0.448 -0.416,-0.448 -0.416,-1.088 0,-0.64 0.416,-1.056 0.448,-0.448 1.088,-0.448 z" stroke-width="0" stroke-linejoin="miter" stroke-miterlimit="2" fill="#820f0a" stroke="#820f0a" transform="translate(1.7053025658242404e-13 362.01300000000003) translate(321.19137500000005 56.64) scale(0.75) translate(-257.43875 23.104)"></path>
        <path id="path515239" style="font-style:normal;font-weight:300;font-size:32px;line-height:1;font-family:Montserrat;font-variant-ligatures:none;text-align:center;text-anchor:middle" d="m 274.99775,-16.832 q 3.008,0 4.704,1.76 1.728,1.728 1.728,4.768 V 0 h -2.176 v -9.792 q 0,-2.368 -1.312,-3.712 -1.312,-1.344 -3.648,-1.344 -2.592,0.032 -4.16,1.6 -1.536,1.568 -1.76,4.224 V 0 h -2.144 v -16.768 h 2.144 v 3.904 q 0.864,-1.952 2.528,-2.944 1.696,-0.992 4.096,-1.024 z" stroke-width="0" stroke-linejoin="miter" stroke-miterlimit="2" fill="#820f0a" stroke="#820f0a" transform="translate(1.7053025658242404e-13 362.01300000000003) translate(327.78462500000006 61.343999999999994) scale(0.75) translate(-266.22975 16.832)"></path>
        <path id="path515241" style="font-style:normal;font-weight:300;font-size:32px;line-height:1;font-family:Montserrat;font-variant-ligatures:none;text-align:center;text-anchor:middle" d="M 302.43125,-23.744 V 0 h -2.144 v -3.84 q -0.96,1.888 -2.688,2.944 -1.728,1.024 -4.032,1.024 -2.368,0 -4.224,-1.088 -1.856,-1.088 -2.88,-3.04 -1.024,-1.952 -1.024,-4.416 0,-2.464 1.024,-4.384 1.056,-1.92 2.88,-3.008 1.856,-1.088 4.192,-1.088 2.304,0 4.032,1.056 1.76,1.056 2.72,2.944 v -10.848 z m -8.48,22.016 q 1.824,0 3.264,-0.832 1.44,-0.864 2.24,-2.368 0.832,-1.504 0.832,-3.424 0,-1.92 -0.832,-3.424 -0.8,-1.536 -2.24,-2.4 -1.44,-0.864 -3.264,-0.864 -1.824,0 -3.264,0.864 -1.44,0.864 -2.272,2.4 -0.832,1.504 -0.832,3.424 0,1.92 0.8,3.424 0.832,1.504 2.272,2.368 1.472,0.832 3.296,0.832 z" stroke-width="0" stroke-linejoin="miter" stroke-miterlimit="2" fill="#820f0a" stroke="#820f0a" transform="translate(1.7053025658242404e-13 362.01300000000003) translate(342.19175000000007 56.16) scale(0.75) translate(-285.43925 23.744)"></path>
        <path id="path515243" style="font-style:normal;font-weight:300;font-size:32px;line-height:1;font-family:Montserrat;font-variant-ligatures:none;text-align:center;text-anchor:middle" d="m 315.57475,-16.832 q 2.432,0 4.352,1.088 1.92,1.056 3.008,2.976 1.088,1.92 1.088,4.352 0,2.464 -1.088,4.416 -1.088,1.92 -3.008,3.008 -1.92,1.056 -4.352,1.056 -2.432,0 -4.352,-1.056 -1.92,-1.088 -3.008,-3.008 -1.088,-1.952 -1.088,-4.416 0,-2.432 1.088,-4.352 1.088,-1.92 3.008,-2.976 1.92,-1.088 4.352,-1.088 z m 0,1.856 q -1.824,0 -3.264,0.832 -1.44,0.832 -2.24,2.336 -0.8,1.504 -0.8,3.424 0,1.952 0.8,3.456 0.8,1.504 2.24,2.336 1.44,0.832 3.264,0.832 1.824,0 3.264,-0.832 1.44,-0.832 2.24,-2.336 0.8,-1.504 0.8,-3.456 0,-1.92 -0.8,-3.424 -0.8,-1.504 -2.24,-2.336 -1.44,-0.832 -3.264,-0.832 z" stroke-width="0" stroke-linejoin="miter" stroke-miterlimit="2" fill="#820f0a" stroke="#820f0a" transform="translate(1.7053025658242404e-13 362.01300000000003) translate(358.45737500000007 61.343999999999994) scale(0.75) translate(-307.12675 16.832)"></path>
        <path id="path515245" style="font-style:normal;font-weight:300;font-size:32px;line-height:1;font-family:Montserrat;font-variant-ligatures:none;text-align:center;text-anchor:middle" d="M 352.61875,-23.744 V 0 h -2.144 v -3.84 q -0.96,1.888 -2.688,2.944 -1.728,1.024 -4.032,1.024 -2.368,0 -4.224,-1.088 -1.856,-1.088 -2.88,-3.04 -1.024,-1.952 -1.024,-4.416 0,-2.464 1.024,-4.384 1.056,-1.92 2.88,-3.008 1.856,-1.088 4.192,-1.088 2.304,0 4.032,1.056 1.76,1.056 2.72,2.944 v -10.848 z m -8.48,22.016 q 1.824,0 3.264,-0.832 1.44,-0.864 2.24,-2.368 0.832,-1.504 0.832,-3.424 0,-1.92 -0.832,-3.424 -0.8,-1.536 -2.24,-2.4 -1.44,-0.864 -3.264,-0.864 -1.824,0 -3.264,0.864 -1.44,0.864 -2.272,2.4 -0.832,1.504 -0.832,3.424 0,1.92 0.8,3.424 0.832,1.504 2.272,2.368 1.472,0.832 3.296,0.832 z" stroke-width="0" stroke-linejoin="miter" stroke-miterlimit="2" fill="#820f0a" stroke="#820f0a" transform="translate(1.7053025658242404e-13 362.01300000000003) translate(379.83237500000007 56.16) scale(0.75) translate(-335.62675 23.744)"></path>
        <path id="path515247" style="font-style:normal;font-weight:300;font-size:32px;line-height:1;font-family:Montserrat;font-variant-ligatures:none;text-align:center;text-anchor:middle" d="m 365.57025,-16.832 q 3.904,0 5.952,2.496 2.048,2.464 1.888,6.656 h -13.984 q 0.224,2.688 1.984,4.352 1.76,1.632 4.352,1.632 1.6,0 2.976,-0.576 1.376,-0.576 2.368,-1.632 l 1.216,1.216 q -1.216,1.312 -2.944,2.048 -1.696,0.704 -3.744,0.704 -2.432,0 -4.32,-1.056 -1.888,-1.088 -2.976,-3.008 -1.056,-1.92 -1.056,-4.384 0,-2.432 1.056,-4.352 1.088,-1.952 2.976,-3.008 1.888,-1.088 4.256,-1.088 z m 5.92,7.488 q -0.16,-2.624 -1.76,-4.16 -1.568,-1.568 -4.128,-1.568 -2.528,0 -4.224,1.568 -1.696,1.568 -1.952,4.16 z" stroke-width="0" stroke-linejoin="miter" stroke-miterlimit="2" fill="#820f0a" stroke="#820f0a" transform="translate(1.7053025658242404e-13 362.01300000000003) translate(396.07400000000007 61.343999999999994) scale(0.75) translate(-357.28225 16.832)"></path>
        <path id="path515249" style="font-style:normal;font-weight:300;font-size:32px;line-height:1;font-family:Montserrat;font-variant-ligatures:none;text-align:center;text-anchor:middle" d="m 386.58925,-13.792 q -0.96,-0.608 -2.144,-0.928 -1.184,-0.352 -2.336,-0.352 -1.6,0 -2.592,0.64 -0.96,0.608 -0.96,1.856 0,0.864 0.512,1.408 0.544,0.544 1.312,0.896 0.8,0.32 2.208,0.736 1.728,0.512 2.816,1.024 1.088,0.48 1.856,1.44 0.768,0.928 0.768,2.464 0,2.272 -1.728,3.488 -1.728,1.184 -4.32,1.184 -1.824,0 -3.52,-0.608 -1.696,-0.608 -2.848,-1.728 l 0.864,-1.536 q 1.088,0.992 2.56,1.568 1.504,0.576 3.04,0.576 1.696,0 2.752,-0.704 1.088,-0.704 1.088,-2.048 0,-0.928 -0.544,-1.504 -0.544,-0.608 -1.376,-0.928 -0.8,-0.352 -2.24,-0.8 -1.696,-0.512 -2.752,-0.992 -1.056,-0.48 -1.792,-1.376 -0.736,-0.928 -0.736,-2.4 0,-2.208 1.632,-3.328 1.664,-1.12 4.128,-1.12 1.44,0 2.784,0.384 1.344,0.384 2.4,1.056 z" stroke-width="0" stroke-linejoin="miter" stroke-miterlimit="2" fill="#820f0a" stroke="#820f0a" transform="translate(1.7053025658242404e-13 362.01300000000003) translate(409.82225000000005 61.32000000000001) scale(0.75) translate(-375.61325 16.864)"></path>
        <path id="path515251" style="font-style:normal;font-weight:300;font-size:32px;line-height:1;font-family:Montserrat;font-variant-ligatures:none;text-align:center;text-anchor:middle" d="m 398.82025,-16.832 q 3.904,0 5.952,2.496 2.048,2.464 1.888,6.656 h -13.984 q 0.224,2.688 1.984,4.352 1.76,1.632 4.352,1.632 1.6,0 2.976,-0.576 1.376,-0.576 2.368,-1.632 l 1.216,1.216 q -1.216,1.312 -2.944,2.048 -1.696,0.704 -3.744,0.704 -2.432,0 -4.32,-1.056 -1.888,-1.088 -2.976,-3.008 -1.056,-1.92 -1.056,-4.384 0,-2.432 1.056,-4.352 1.088,-1.952 2.976,-3.008 1.888,-1.088 4.256,-1.088 z m 5.92,7.488 q -0.16,-2.624 -1.76,-4.16 -1.568,-1.568 -4.128,-1.568 -2.528,0 -4.224,1.568 -1.696,1.568 -1.952,4.16 z" stroke-width="0" stroke-linejoin="miter" stroke-miterlimit="2" fill="#820f0a" stroke="#820f0a" transform="translate(1.7053025658242404e-13 362.01300000000003) translate(421.01150000000007 61.343999999999994) scale(0.75) translate(-390.53225 16.832)"></path>
        <path id="path515253" style="font-style:normal;font-weight:300;font-size:32px;line-height:1;font-family:Montserrat;font-variant-ligatures:none;text-align:center;text-anchor:middle" d="m 432.57525,-16.832 q 2.976,0 4.64,1.728 1.664,1.728 1.664,4.8 V 0 h -2.176 v -9.792 q 0,-2.4 -1.312,-3.712 -1.28,-1.344 -3.552,-1.344 -2.688,0.064 -4.224,1.856 -1.504,1.792 -1.504,4.736 V 0 h -2.176 v -9.792 q 0,-2.4 -1.312,-3.712 -1.28,-1.344 -3.552,-1.344 -2.688,0.064 -4.224,1.856 -1.536,1.792 -1.536,4.736 V 0 h -2.144 v -16.768 h 2.144 v 3.936 q 0.832,-1.984 2.464,-2.976 1.664,-0.992 4.032,-1.024 2.4,0 3.968,1.184 1.6,1.184 2.112,3.328 0.768,-2.24 2.464,-3.36 1.728,-1.12 4.224,-1.152 z" stroke-width="0" stroke-linejoin="miter" stroke-miterlimit="2" fill="#820f0a" stroke="#820f0a" transform="translate(1.7053025658242404e-13 362.01300000000003) translate(436.4877500000001 61.343999999999994) scale(0.75) translate(-411.16725 16.832)"></path>
        <path id="path515255" style="font-style:normal;font-weight:300;font-size:32px;line-height:1;font-family:Montserrat;font-variant-ligatures:none;text-align:center;text-anchor:middle" d="m 453.59675,-16.832 q 2.336,0 4.16,1.088 1.856,1.056 2.88,3.008 1.024,1.92 1.024,4.384 0,2.432 -1.024,4.352 -1.024,1.92 -2.848,3.008 -1.824,1.056 -4.16,1.056 -2.304,0 -4.032,-1.024 -1.728,-1.056 -2.688,-2.912 v 10.08 h -2.144 v -22.976 h 2.144 v 3.872 q 0.928,-1.856 2.656,-2.88 1.76,-1.056 4.032,-1.056 z m -0.384,15.04 q 1.792,0 3.232,-0.832 1.44,-0.864 2.24,-2.368 0.8,-1.504 0.8,-3.424 0,-1.888 -0.8,-3.392 -0.8,-1.504 -2.24,-2.336 -1.44,-0.864 -3.232,-0.864 -1.824,0 -3.264,0.864 -1.408,0.832 -2.24,2.336 -0.8,1.504 -0.8,3.392 0,1.92 0.8,3.424 0.8,1.504 2.24,2.368 1.44,0.832 3.264,0.832 z" stroke-width="0" stroke-linejoin="miter" stroke-miterlimit="2" fill="#820f0a" stroke="#820f0a" transform="translate(1.7053025658242404e-13 362.01300000000003) translate(461.6858750000001 61.343999999999994) scale(0.75) translate(-444.76475 16.832)"></path>
        <path id="path515257" style="font-style:normal;font-weight:300;font-size:32px;line-height:1;font-family:Montserrat;font-variant-ligatures:none;text-align:center;text-anchor:middle" d="m 472.75775,-16.832 q 3.904,0 5.952,2.496 2.048,2.464 1.888,6.656 h -13.984 q 0.224,2.688 1.984,4.352 1.76,1.632 4.352,1.632 1.6,0 2.976,-0.576 1.376,-0.576 2.368,-1.632 l 1.216,1.216 q -1.216,1.312 -2.944,2.048 -1.696,0.704 -3.744,0.704 -2.432,0 -4.32,-1.056 -1.888,-1.088 -2.976,-3.008 -1.056,-1.92 -1.056,-4.384 0,-2.432 1.056,-4.352 1.088,-1.952 2.976,-3.008 1.888,-1.088 4.256,-1.088 z m 5.92,7.488 q -0.16,-2.624 -1.76,-4.16 -1.568,-1.568 -4.128,-1.568 -2.528,0 -4.224,1.568 -1.696,1.568 -1.952,4.16 z" stroke-width="0" stroke-linejoin="miter" stroke-miterlimit="2" fill="#820f0a" stroke="#820f0a" transform="translate(1.7053025658242404e-13 362.01300000000003) translate(476.4646250000001 61.343999999999994) scale(0.75) translate(-464.46975 16.832)"></path>
        <path id="path515259" style="font-style:normal;font-weight:300;font-size:32px;line-height:1;font-family:Montserrat;font-variant-ligatures:none;text-align:center;text-anchor:middle" d="m 493.87275,-16.832 q 3.008,0 4.704,1.76 1.728,1.728 1.728,4.768 V 0 h -2.176 v -9.792 q 0,-2.368 -1.312,-3.712 -1.312,-1.344 -3.648,-1.344 -2.592,0.032 -4.16,1.6 -1.536,1.568 -1.76,4.224 V 0 h -2.144 v -16.768 h 2.144 v 3.904 q 0.864,-1.952 2.528,-2.944 1.696,-0.992 4.096,-1.024 z" stroke-width="0" stroke-linejoin="miter" stroke-miterlimit="2" fill="#820f0a" stroke="#820f0a" transform="translate(1.7053025658242404e-13 362.01300000000003) translate(491.9408750000002 61.343999999999994) scale(0.75) translate(-485.10475 16.832)"></path>
        <path id="path515261" style="font-style:normal;font-weight:300;font-size:32px;line-height:1;font-family:Montserrat;font-variant-ligatures:none;text-align:center;text-anchor:middle" d="m 515.00225,-16.832 q 3.008,0 4.704,1.76 1.728,1.728 1.728,4.768 V 0 h -2.176 v -9.792 q 0,-2.368 -1.312,-3.712 -1.312,-1.344 -3.648,-1.344 -2.784,0.032 -4.384,1.856 -1.568,1.792 -1.568,4.768 V 0 h -2.144 v -23.744 h 2.144 V -12.8 q 1.696,-3.968 6.656,-4.032 z" stroke-width="0" stroke-linejoin="miter" stroke-miterlimit="2" fill="#820f0a" stroke="#820f0a" transform="translate(1.7053025658242404e-13 362.01300000000003) translate(507.7640000000001 56.16) scale(0.75) translate(-506.20225 23.744)"></path>
        <path id="path515263" style="font-style:normal;font-weight:300;font-size:32px;line-height:1;font-family:Montserrat;font-variant-ligatures:none;text-align:center;text-anchor:middle" d="m 533.88725,-16.832 q 2.432,0 4.352,1.088 1.92,1.056 3.008,2.976 1.088,1.92 1.088,4.352 0,2.464 -1.088,4.416 -1.088,1.92 -3.008,3.008 -1.92,1.056 -4.352,1.056 -2.432,0 -4.352,-1.056 -1.92,-1.088 -3.008,-3.008 -1.088,-1.952 -1.088,-4.416 0,-2.432 1.088,-4.352 1.088,-1.92 3.008,-2.976 1.92,-1.088 4.352,-1.088 z m 0,1.856 q -1.824,0 -3.264,0.832 -1.44,0.832 -2.24,2.336 -0.8,1.504 -0.8,3.424 0,1.952 0.8,3.456 0.8,1.504 2.24,2.336 1.44,0.832 3.264,0.832 1.824,0 3.264,-0.832 1.44,-0.832 2.24,-2.336 0.8,-1.504 0.8,-3.456 0,-1.92 -0.8,-3.424 -0.8,-1.504 -2.24,-2.336 -1.44,-0.832 -3.264,-0.832 z" stroke-width="0" stroke-linejoin="miter" stroke-miterlimit="2" fill="#820f0a" stroke="#820f0a" transform="translate(1.7053025658242404e-13 362.01300000000003) translate(522.1917500000001 61.343999999999994) scale(0.75) translate(-525.43925 16.832)"></path>
        <path id="path515265" style="font-style:normal;font-weight:300;font-size:32px;line-height:1;font-family:Montserrat;font-variant-ligatures:none;text-align:center;text-anchor:middle" d="m 546.85475,-2.624 q 0.576,0 0.96,0.416 0.416,0.384 0.416,1.024 0,0.448 -0.352,1.216 l -1.6,3.648 h -1.28 l 1.248,-3.616 q -0.384,-0.16 -0.608,-0.512 -0.192,-0.352 -0.192,-0.736 0,-0.608 0.384,-1.024 0.416,-0.416 1.024,-0.416 z" stroke-width="0" stroke-linejoin="miter" stroke-miterlimit="2" fill="#820f0a" stroke="#820f0a" transform="translate(1.7053025658242404e-13 362.01300000000003) translate(536.8613750000001 72) scale(0.75) translate(-544.99875 2.624)"></path>
        <path id="path515267" style="font-style:normal;font-weight:300;font-size:32px;line-height:1;font-family:Montserrat;font-variant-ligatures:none;text-align:center;text-anchor:middle" d="m 583.20025,-16.832 q 2.976,0 4.64,1.728 1.664,1.728 1.664,4.8 V 0 h -2.176 v -9.792 q 0,-2.4 -1.312,-3.712 -1.28,-1.344 -3.552,-1.344 -2.688,0.064 -4.224,1.856 -1.504,1.792 -1.504,4.736 V 0 h -2.176 v -9.792 q 0,-2.4 -1.312,-3.712 -1.28,-1.344 -3.552,-1.344 -2.688,0.064 -4.224,1.856 -1.536,1.792 -1.536,4.736 V 0 h -2.144 v -16.768 h 2.144 v 3.936 q 0.832,-1.984 2.464,-2.976 1.664,-0.992 4.032,-1.024 2.4,0 3.968,1.184 1.6,1.184 2.112,3.328 0.768,-2.24 2.464,-3.36 1.728,-1.12 4.224,-1.152 z" stroke-width="0" stroke-linejoin="miter" stroke-miterlimit="2" fill="#820f0a" stroke="#820f0a" transform="translate(1.7053025658242404e-13 362.01300000000003) translate(549.4565 61.343999999999994) scale(0.75) translate(-561.79225 16.832)"></path>
        <path id="path515269" style="font-style:normal;font-weight:300;font-size:32px;line-height:1;font-family:Montserrat;font-variant-ligatures:none;text-align:center;text-anchor:middle" d="m 605.75775,0 -0.032,-2.816 q -0.992,1.472 -2.592,2.208 -1.6,0.704 -3.68,0.704 -1.696,0 -3.008,-0.64 -1.28,-0.672 -1.984,-1.824 -0.704,-1.152 -0.704,-2.592 0,-2.176 1.664,-3.424 1.696,-1.248 4.64,-1.248 h 5.632 v -1.28 q 0,-1.984 -1.184,-3.072 -1.184,-1.088 -3.456,-1.088 -2.688,0 -5.408,2.016 l -0.96,-1.472 q 1.696,-1.184 3.232,-1.728 1.536,-0.576 3.52,-0.576 3.04,0 4.704,1.536 1.664,1.504 1.696,4.192 L 607.86975,0 Z m -5.92,-1.696 q 2.24,0 3.776,-1.024 1.568,-1.056 2.112,-2.944 v -2.304 h -5.408 q -2.208,0 -3.36,0.736 -1.152,0.736 -1.152,2.208 0,1.504 1.088,2.432 1.12,0.896 2.944,0.896 z" stroke-width="0" stroke-linejoin="miter" stroke-miterlimit="2" fill="#820f0a" stroke="#820f0a" transform="translate(1.7053025658242404e-13 362.01300000000003) translate(573.430625 61.343999999999994) scale(0.75) translate(-593.75775 16.832)"></path>
        <path id="path515271" style="font-style:normal;font-weight:300;font-size:32px;line-height:1;font-family:Montserrat;font-variant-ligatures:none;text-align:center;text-anchor:middle" d="m 622.37275,-16.832 q 3.008,0 4.704,1.76 1.728,1.728 1.728,4.768 V 0 h -2.176 v -9.792 q 0,-2.368 -1.312,-3.712 -1.312,-1.344 -3.648,-1.344 -2.592,0.032 -4.16,1.6 -1.536,1.568 -1.76,4.224 V 0 h -2.144 v -16.768 h 2.144 v 3.904 q 0.864,-1.952 2.528,-2.944 1.696,-0.992 4.096,-1.024 z" stroke-width="0" stroke-linejoin="miter" stroke-miterlimit="2" fill="#820f0a" stroke="#820f0a" transform="translate(1.7053025658242404e-13 362.01300000000003) translate(588.3158749999999 61.343999999999994) scale(0.75) translate(-613.60475 16.832)"></path>
        <path id="path515273" style="font-style:normal;font-weight:300;font-size:32px;line-height:1;font-family:Montserrat;font-variant-ligatures:none;text-align:center;text-anchor:middle" d="m 642.99025,-1.152 q -1.728,1.184 -3.712,1.248 -1.92,0 -3.04,-1.184 -1.12,-1.184 -1.12,-3.552 v -9.984 h -2.4 l -0.032,-1.664 h 2.432 v -4.32 h 2.144 v 4.32 l 5.44,-0.032 v 1.696 h -5.44 v 9.632 q 0,3.104 2.304,3.104 1.28,0 2.784,-0.896 z" stroke-width="0" stroke-linejoin="miter" stroke-miterlimit="2" fill="#820f0a" stroke="#820f0a" transform="translate(1.7053025658242404e-13 362.01300000000003) translate(602.6269999999998 58.512) scale(0.75) translate(-632.68625 20.608)"></path>
        <path id="path515275" style="font-style:normal;font-weight:300;font-size:32px;line-height:1;font-family:Montserrat;font-variant-ligatures:none;text-align:center;text-anchor:middle" d="m 653.13275,-16.832 q 3.904,0 5.952,2.496 2.048,2.464 1.888,6.656 h -13.984 q 0.224,2.688 1.984,4.352 1.76,1.632 4.352,1.632 1.6,0 2.976,-0.576 1.376,-0.576 2.368,-1.632 l 1.216,1.216 q -1.216,1.312 -2.944,2.048 -1.696,0.704 -3.744,0.704 -2.432,0 -4.32,-1.056 -1.888,-1.088 -2.976,-3.008 -1.056,-1.92 -1.056,-4.384 0,-2.432 1.056,-4.352 1.088,-1.952 2.976,-3.008 1.888,-1.088 4.256,-1.088 z m 5.92,7.488 q -0.16,-2.624 -1.76,-4.16 -1.568,-1.568 -4.128,-1.568 -2.528,0 -4.224,1.568 -1.696,1.568 -1.952,4.16 z" stroke-width="0" stroke-linejoin="miter" stroke-miterlimit="2" fill="#820f0a" stroke="#820f0a" transform="translate(1.7053025658242404e-13 362.01300000000003) translate(611.7458749999998 61.343999999999994) scale(0.75) translate(-644.84475 16.832)"></path>
        <path id="path515277" style="font-style:normal;font-weight:300;font-size:32px;line-height:1;font-family:Montserrat;font-variant-ligatures:none;text-align:center;text-anchor:middle" d="m 674.24775,-16.832 q 3.008,0 4.704,1.76 1.728,1.728 1.728,4.768 V 0 h -2.176 v -9.792 q 0,-2.368 -1.312,-3.712 -1.312,-1.344 -3.648,-1.344 -2.592,0.032 -4.16,1.6 -1.536,1.568 -1.76,4.224 V 0 h -2.144 v -16.768 h 2.144 v 3.904 q 0.864,-1.952 2.528,-2.944 1.696,-0.992 4.096,-1.024 z" stroke-width="0" stroke-linejoin="miter" stroke-miterlimit="2" fill="#820f0a" stroke="#820f0a" transform="translate(1.7053025658242404e-13 362.01300000000003) translate(627.2221249999999 61.343999999999994) scale(0.75) translate(-665.47975 16.832)"></path>
        <path id="path515279" style="font-style:normal;font-weight:300;font-size:32px;line-height:1;font-family:Montserrat;font-variant-ligatures:none;text-align:center;text-anchor:middle" d="M 701.68125,-23.744 V 0 h -2.144 v -3.84 q -0.96,1.888 -2.688,2.944 -1.728,1.024 -4.032,1.024 -2.368,0 -4.224,-1.088 -1.856,-1.088 -2.88,-3.04 -1.024,-1.952 -1.024,-4.416 0,-2.464 1.024,-4.384 1.056,-1.92 2.88,-3.008 1.856,-1.088 4.192,-1.088 2.304,0 4.032,1.056 1.76,1.056 2.72,2.944 v -10.848 z m -8.48,22.016 q 1.824,0 3.264,-0.832 1.44,-0.864 2.24,-2.368 0.832,-1.504 0.832,-3.424 0,-1.92 -0.832,-3.424 -0.8,-1.536 -2.24,-2.4 -1.44,-0.864 -3.264,-0.864 -1.824,0 -3.264,0.864 -1.44,0.864 -2.272,2.4 -0.832,1.504 -0.832,3.424 0,1.92 0.8,3.424 0.832,1.504 2.272,2.368 1.472,0.832 3.296,0.832 z" stroke-width="0" stroke-linejoin="miter" stroke-miterlimit="2" fill="#820f0a" stroke="#820f0a" transform="translate(1.7053025658242404e-13 362.01300000000003) translate(641.6292499999998 56.16) scale(0.75) translate(-684.68925 23.744)"></path>
        <path id="path515281" style="font-style:normal;font-weight:300;font-size:32px;line-height:1;font-family:Montserrat;font-variant-ligatures:none;text-align:center;text-anchor:middle" d="m 714.82475,-16.832 q 2.432,0 4.352,1.088 1.92,1.056 3.008,2.976 1.088,1.92 1.088,4.352 0,2.464 -1.088,4.416 -1.088,1.92 -3.008,3.008 -1.92,1.056 -4.352,1.056 -2.432,0 -4.352,-1.056 -1.92,-1.088 -3.008,-3.008 -1.088,-1.952 -1.088,-4.416 0,-2.432 1.088,-4.352 1.088,-1.92 3.008,-2.976 1.92,-1.088 4.352,-1.088 z m 0,1.856 q -1.824,0 -3.264,0.832 -1.44,0.832 -2.24,2.336 -0.8,1.504 -0.8,3.424 0,1.952 0.8,3.456 0.8,1.504 2.24,2.336 1.44,0.832 3.264,0.832 1.824,0 3.264,-0.832 1.44,-0.832 2.24,-2.336 0.8,-1.504 0.8,-3.456 0,-1.92 -0.8,-3.424 -0.8,-1.504 -2.24,-2.336 -1.44,-0.832 -3.264,-0.832 z" stroke-width="0" stroke-linejoin="miter" stroke-miterlimit="2" fill="#820f0a" stroke="#820f0a" transform="translate(1.7053025658242404e-13 362.01300000000003) translate(657.894875 61.343999999999994) scale(0.75) translate(-706.37675 16.832)"></path>
        <path id="path515283" style="font-style:normal;font-weight:300;font-size:32px;line-height:1;font-family:Montserrat;font-variant-ligatures:none;text-align:center;text-anchor:middle" d="m 748.28475,-12.96 q -2.048,-1.984 -5.024,-1.984 -1.792,0 -3.232,0.832 -1.44,0.832 -2.24,2.336 -0.8,1.472 -0.8,3.392 0,1.92 0.8,3.424 0.8,1.504 2.24,2.336 1.44,0.832 3.232,0.832 1.632,0 2.976,-0.576 1.376,-0.576 2.304,-1.664 l 1.216,1.28 q -1.12,1.344 -2.816,2.08 -1.696,0.736 -3.776,0.736 -2.4,0 -4.288,-1.056 -1.888,-1.088 -2.976,-3.008 -1.056,-1.952 -1.056,-4.384 0,-2.432 1.056,-4.352 1.088,-1.952 2.976,-3.008 1.888,-1.088 4.288,-1.088 1.952,0 3.552,0.64 1.632,0.64 2.784,1.792 z" stroke-width="0" stroke-linejoin="miter" stroke-miterlimit="2" fill="#820f0a" stroke="#820f0a" transform="translate(1.7053025658242404e-13 362.01300000000003) translate(679.245875 61.343999999999994) scale(0.75) translate(-734.84475 16.832)"></path>
        <path id="path515285" style="font-style:normal;font-weight:300;font-size:32px;line-height:1;font-family:Montserrat;font-variant-ligatures:none;text-align:center;text-anchor:middle" d="m 760.44975,-16.832 q 2.432,0 4.352,1.088 1.92,1.056 3.008,2.976 1.088,1.92 1.088,4.352 0,2.464 -1.088,4.416 -1.088,1.92 -3.008,3.008 -1.92,1.056 -4.352,1.056 -2.432,0 -4.352,-1.056 -1.92,-1.088 -3.008,-3.008 -1.088,-1.952 -1.088,-4.416 0,-2.432 1.088,-4.352 1.088,-1.92 3.008,-2.976 1.92,-1.088 4.352,-1.088 z m 0,1.856 q -1.824,0 -3.264,0.832 -1.44,0.832 -2.24,2.336 -0.8,1.504 -0.8,3.424 0,1.952 0.8,3.456 0.8,1.504 2.24,2.336 1.44,0.832 3.264,0.832 1.824,0 3.264,-0.832 1.44,-0.832 2.24,-2.336 0.8,-1.504 0.8,-3.456 0,-1.92 -0.8,-3.424 -0.8,-1.504 -2.24,-2.336 -1.44,-0.832 -3.264,-0.832 z" stroke-width="0" stroke-linejoin="miter" stroke-miterlimit="2" fill="#820f0a" stroke="#820f0a" transform="translate(1.7053025658242404e-13 362.01300000000003) translate(692.113625 61.343999999999994) scale(0.75) translate(-752.00175 16.832)"></path>
        <path id="path515287" style="font-style:normal;font-weight:300;font-size:32px;line-height:1;font-family:Montserrat;font-variant-ligatures:none;text-align:center;text-anchor:middle" d="m 782.18525,-16.832 q 3.008,0 4.704,1.76 1.728,1.728 1.728,4.768 V 0 h -2.176 v -9.792 q 0,-2.368 -1.312,-3.712 -1.312,-1.344 -3.648,-1.344 -2.592,0.032 -4.16,1.6 -1.536,1.568 -1.76,4.224 V 0 h -2.144 v -16.768 h 2.144 v 3.904 q 0.864,-1.952 2.528,-2.944 1.696,-0.992 4.096,-1.024 z" stroke-width="0" stroke-linejoin="miter" stroke-miterlimit="2" fill="#820f0a" stroke="#820f0a" transform="translate(1.7053025658242404e-13 362.01300000000003) translate(708.17525 61.343999999999994) scale(0.75) translate(-773.41725 16.832)"></path>
        <path id="path515289" style="font-style:normal;font-weight:300;font-size:32px;line-height:1;font-family:Montserrat;font-variant-ligatures:none;text-align:center;text-anchor:middle" d="m 800.11475,-22.08 q -1.344,0 -2.272,0.928 -0.896,0.928 -0.896,2.464 v 2.368 h 4.928 v 1.696 h -4.928 V 0 h -2.144 v -14.624 h -2.144 v -1.696 h 2.144 v -2.112 q 0,-1.664 0.704,-2.912 0.704,-1.28 1.888,-1.952 1.184,-0.672 2.56,-0.672 1.568,0 2.944,0.768 l -0.544,1.728 q -1.152,-0.608 -2.24,-0.608 z" stroke-width="0" stroke-linejoin="miter" stroke-miterlimit="2" fill="#820f0a" stroke="#820f0a" transform="translate(1.7053025658242404e-13 362.01300000000003) translate(722.6063750000001 55.992000000000004) scale(0.75) translate(-792.65875 23.968)"></path>
        <path id="path515291" style="font-style:normal;font-weight:300;font-size:32px;line-height:1;font-family:Montserrat;font-variant-ligatures:none;text-align:center;text-anchor:middle" d="m 804.72975,-16.768 h 2.144 V 0 h -2.144 z m 1.088,-6.336 q 0.64,0 1.056,0.448 0.416,0.416 0.416,1.056 0,0.64 -0.448,1.088 -0.416,0.448 -1.024,0.448 -0.64,0 -1.088,-0.448 -0.416,-0.448 -0.416,-1.088 0,-0.64 0.416,-1.056 0.448,-0.448 1.088,-0.448 z" stroke-width="0" stroke-linejoin="miter" stroke-miterlimit="2" fill="#820f0a" stroke="#820f0a" transform="translate(1.7053025658242404e-13 362.01300000000003) translate(731.347625 56.64) scale(0.75) translate(-804.31375 23.104)"></path>
        <path id="path515293" style="font-style:normal;font-weight:300;font-size:32px;line-height:1;font-family:Montserrat;font-variant-ligatures:none;text-align:center;text-anchor:middle" d="m 823.63275,0 -0.032,-2.816 q -0.992,1.472 -2.592,2.208 -1.6,0.704 -3.68,0.704 -1.696,0 -3.008,-0.64 -1.28,-0.672 -1.984,-1.824 -0.704,-1.152 -0.704,-2.592 0,-2.176 1.664,-3.424 1.696,-1.248 4.64,-1.248 h 5.632 v -1.28 q 0,-1.984 -1.184,-3.072 -1.184,-1.088 -3.456,-1.088 -2.688,0 -5.408,2.016 l -0.96,-1.472 q 1.696,-1.184 3.232,-1.728 1.536,-0.576 3.52,-0.576 3.04,0 4.704,1.536 1.664,1.504 1.696,4.192 L 825.74475,0 Z m -5.92,-1.696 q 2.24,0 3.776,-1.024 1.568,-1.056 2.112,-2.944 v -2.304 h -5.408 q -2.208,0 -3.36,0.736 -1.152,0.736 -1.152,2.208 0,1.504 1.088,2.432 1.12,0.896 2.944,0.896 z" stroke-width="0" stroke-linejoin="miter" stroke-miterlimit="2" fill="#820f0a" stroke="#820f0a" transform="translate(1.7053025658242404e-13 362.01300000000003) translate(736.836875 61.343999999999994) scale(0.75) translate(-811.63275 16.832)"></path>
        <path id="path515295" style="font-style:normal;font-weight:300;font-size:32px;line-height:1;font-family:Montserrat;font-variant-ligatures:none;text-align:center;text-anchor:middle" d="m 840.24775,-16.832 q 3.008,0 4.704,1.76 1.728,1.728 1.728,4.768 V 0 h -2.176 v -9.792 q 0,-2.368 -1.312,-3.712 -1.312,-1.344 -3.648,-1.344 -2.592,0.032 -4.16,1.6 -1.536,1.568 -1.76,4.224 V 0 h -2.144 v -16.768 h 2.144 v 3.904 q 0.864,-1.952 2.528,-2.944 1.696,-0.992 4.096,-1.024 z" stroke-width="0" stroke-linejoin="miter" stroke-miterlimit="2" fill="#820f0a" stroke="#820f0a" transform="translate(1.7053025658242404e-13 362.01300000000003) translate(751.7221249999999 61.343999999999994) scale(0.75) translate(-831.47975 16.832)"></path>
        <path id="path515297" style="font-style:normal;font-weight:300;font-size:32px;line-height:1;font-family:Montserrat;font-variant-ligatures:none;text-align:center;text-anchor:middle" d="m 865.56925,-2.752 q -1.056,1.248 -2.624,1.984 -1.536,0.736 -3.456,0.832 l -0.512,1.632 q 1.28,0.128 1.92,0.832 0.672,0.704 0.672,1.632 0,1.216 -0.928,1.984 -0.896,0.768 -2.368,0.768 -0.672,0 -1.408,-0.192 -0.736,-0.192 -1.312,-0.512 l 0.512,-1.376 q 0.416,0.224 0.96,0.352 0.544,0.16 1.024,0.16 0.832,0 1.28,-0.416 0.48,-0.416 0.48,-0.96 0,-0.512 -0.48,-0.896 -0.448,-0.352 -1.248,-0.352 h -0.96 l 0.832,-2.72 q -2.144,-0.224 -3.808,-1.344 -1.632,-1.12 -2.56,-2.944 -0.928,-1.824 -0.928,-4.096 0,-2.432 1.056,-4.352 1.088,-1.952 2.976,-3.008 1.888,-1.088 4.288,-1.088 1.952,0 3.552,0.64 1.632,0.64 2.784,1.792 l -1.216,1.44 q -2.048,-1.984 -5.024,-1.984 -1.792,0 -3.232,0.832 -1.44,0.832 -2.24,2.336 -0.8,1.472 -0.8,3.392 0,1.92 0.8,3.424 0.8,1.504 2.24,2.336 1.44,0.832 3.232,0.832 1.632,0 2.976,-0.576 1.376,-0.576 2.304,-1.664 z" stroke-width="0" stroke-linejoin="miter" stroke-miterlimit="2" fill="#820f0a" stroke="#820f0a" transform="translate(1.7053025658242404e-13 362.01300000000003) translate(766.1052499999998 61.343999999999994) scale(0.75) translate(-850.65725 16.832)"></path>
        <path id="path515299" style="font-style:normal;font-weight:300;font-size:32px;line-height:1;font-family:Montserrat;font-variant-ligatures:none;text-align:center;text-anchor:middle" d="m 879.88275,0 -0.032,-2.816 q -0.992,1.472 -2.592,2.208 -1.6,0.704 -3.68,0.704 -1.696,0 -3.008,-0.64 -1.28,-0.672 -1.984,-1.824 -0.704,-1.152 -0.704,-2.592 0,-2.176 1.664,-3.424 1.696,-1.248 4.64,-1.248 h 5.632 v -1.28 q 0,-1.984 -1.184,-3.072 -1.184,-1.088 -3.456,-1.088 -2.688,0 -5.408,2.016 l -0.96,-1.472 q 1.696,-1.184 3.232,-1.728 1.536,-0.576 3.52,-0.576 3.04,0 4.704,1.536 1.664,1.504 1.696,4.192 L 881.99475,0 Z m -5.92,-1.696 q 2.24,0 3.776,-1.024 1.568,-1.056 2.112,-2.944 v -2.304 h -5.408 q -2.208,0 -3.36,0.736 -1.152,0.736 -1.152,2.208 0,1.504 1.088,2.432 1.12,0.896 2.944,0.896 z" stroke-width="0" stroke-linejoin="miter" stroke-miterlimit="2" fill="#820f0a" stroke="#820f0a" transform="translate(1.7053025658242404e-13 362.01300000000003) translate(779.0243749999997 61.343999999999994) scale(0.75) translate(-867.88275 16.832)"></path>
        <path id="path515301" style="font-style:normal;font-weight:300;font-size:32px;line-height:1;font-family:Montserrat;font-variant-ligatures:none;text-align:center;text-anchor:middle" d="m 887.69775,-2.656 q 0.608,0 1.024,0.416 0.416,0.416 0.416,1.024 0,0.608 -0.416,1.056 -0.416,0.416 -1.024,0.416 -0.608,0 -1.024,-0.416 -0.384,-0.416 -0.384,-1.056 0,-0.608 0.384,-1.024 0.416,-0.416 1.024,-0.416 z" stroke-width="0" stroke-linejoin="miter" stroke-miterlimit="2" fill="#820f0a" stroke="#820f0a" transform="translate(1.7053025658242404e-13 362.01300000000003) translate(792.8296249999997 71.976) scale(0.75) translate(-886.28975 2.656)"></path>
      </g>
      <g id="title" style="font-style:normal;font-weight:normal;font-size:72px;line-height:1;font-family:'Brandmark Sans 2';font-variant-ligatures:normal;text-align:center;text-anchor:middle" transform="translate(0 0)">
        <path id="path515304" style="font-style:normal;font-weight:normal;font-size:72px;line-height:1;font-family:'Brandmark Sans 2';font-variant-ligatures:normal;text-align:center;text-anchor:middle" d="m 417.64175,0 -17.28,-43.704 6.336,-6.696 h -20.952 l -9.432,23.184 h 10.512 l 4.536,-12.24 7.632,21.096 h -40.176 l -8.424,8.856 h 18.72 L 365.22575,0 h 11.52 l 3.528,-9.504 h 21.888 l 3.456,9.504 z" stroke-width="0" stroke-linejoin="miter" stroke-miterlimit="2" fill="#820f0a" stroke="#820f0a" transform="translate(0 291.03700000000003) translate(293.96242500000005 43.808) scale(1.25) translate(-350.39375 50.4)"></path>
        <path id="path515306" style="font-style:normal;font-weight:normal;font-size:72px;line-height:1;font-family:'Brandmark Sans 2';font-variant-ligatures:normal;text-align:center;text-anchor:middle" d="m 436.24137,-32.328 h -0.072 l -1.00799,1.8 v -8.208 h -10.94401 v 38.592 h 10.94401 v -19.8 c 0.64799,-5.904 5.39999,-9.36 12.168,-8.928 V -39.24 c -4.89601,0.216 -8.71201,2.592 -11.08801,6.912 z" stroke-width="0" stroke-linejoin="miter" stroke-miterlimit="2" fill="#751a1e" stroke="#751a1e" transform="translate(0 291.03700000000003) translate(391.2419500000001 57.757999999999996) scale(1.25) translate(-424.21737 39.24)"></path>
        <path id="path515308" style="font-style:normal;font-weight:normal;font-size:72px;line-height:1;font-family:'Brandmark Sans 2';font-variant-ligatures:normal;text-align:center;text-anchor:middle" d="m 487.304,-7.416 -8.352,-6.192 c -1.728,2.016 -4.32,3.312 -7.272,3.312 -5.184,0 -9.432,-4.104 -9.432,-9.216 0,-5.112 4.248,-9.216 9.432,-9.216 2.88,0 5.472,1.296 7.2,3.312 l 8.424,-6.192 c -3.672,-4.608 -9.36,-7.632 -15.768,-7.632 -11.016,0 -19.944,8.856 -19.944,19.728 0,10.872 8.928,19.728 19.944,19.728 6.408,0 12.096,-3.024 15.768,-7.632 z" stroke-width="0" stroke-linejoin="miter" stroke-miterlimit="2" fill="#672532" stroke="#672532" transform="translate(0 291.03700000000003) translate(430.46023750000006 57.757999999999996) scale(1.25) translate(-451.592 39.24)"></path>
        <path id="path515310" style="font-style:normal;font-weight:normal;font-size:72px;line-height:1;font-family:'Brandmark Sans 2';font-variant-ligatures:normal;text-align:center;text-anchor:middle" d="m 499.508,-44.424 c 3.672,0 6.264,-2.52 6.264,-6.12 0,-3.672 -2.592,-6.264 -6.264,-6.264 -3.672,0 -6.264,2.592 -6.264,6.264 0,3.6 2.592,6.12 6.264,6.12 z m -5.4,44.208 h 10.872 v -38.592 h -10.872 z" stroke-width="0" stroke-linejoin="miter" stroke-miterlimit="2" fill="#5a3046" stroke="#5a3046" transform="translate(0 291.03700000000003) translate(487.5252375000001 35.797999999999995) scale(1.25) translate(-493.244 56.808)"></path>
        <path id="path515312" style="font-style:normal;font-weight:normal;font-size:72px;line-height:1;font-family:'Brandmark Sans 2';font-variant-ligatures:normal;text-align:center;text-anchor:middle" d="m 550.93737,-50.472 h -40.392 v 9.504 h 14.47201 v 40.896 h 11.30399 v -40.896 h 14.616 z" stroke-width="0" stroke-linejoin="miter" stroke-miterlimit="2" fill="#4c3c5b" stroke="#4c3c5b" transform="translate(0 291.03700000000003) translate(514.15195 43.717999999999996) scale(1.25) translate(-510.54537 50.472)"></path>
        <path id="path515314" style="font-style:normal;font-weight:normal;font-size:72px;line-height:1;font-family:'Brandmark Sans 2';font-variant-ligatures:normal;text-align:center;text-anchor:middle" d="m 581.02662,-34.128 c -3.168,-3.312 -7.63199,-5.04 -13.24799,-5.04 -11.30401,0 -18.93601,7.992 -18.93601,19.872 0,11.88 7.56,19.584 19.29601,19.584 6.336,0 11.736,-2.232 15.55199,-6.48 l -5.616,-5.832 c -2.52,2.448 -5.688,3.816 -9,3.816 -4.67999,0 -8.064,-2.808 -9.288,-7.704 l -0.144,-0.648 h 26.42401 c 0.36,-7.632 -1.36801,-13.68 -5.04001,-17.568 z m -21.528,11.808 0.072,-0.576 c 0.864,-5.184 4.032,-8.424 8.28001,-8.424 4.60799,0 7.70399,3.456 7.70399,8.568 l 0.072,0.432 z" stroke-width="0" stroke-linejoin="miter" stroke-miterlimit="2" fill="#3f476f" stroke="#3f476f" transform="translate(0 291.03700000000003) translate(567.0235125000002 57.848) scale(1.25) translate(-548.84262 39.168)"></path>
        <path id="path515316" style="font-style:normal;font-weight:normal;font-size:72px;line-height:1;font-family:'Brandmark Sans 2';font-variant-ligatures:normal;text-align:center;text-anchor:middle" d="m 627.22587,-7.416 -8.352,-6.192 c -1.72799,2.016 -4.32,3.312 -7.272,3.312 -5.184,0 -9.43199,-4.104 -9.43199,-9.216 0,-5.112 4.24799,-9.216 9.43199,-9.216 2.88,0 5.47201,1.296 7.2,3.312 l 8.424,-6.192 c -3.672,-4.608 -9.36,-7.632 -15.76799,-7.632 -11.01601,0 -19.94401,8.856 -19.94401,19.728 0,10.872 8.928,19.728 19.94401,19.728 6.40799,0 12.09599,-3.024 15.76799,-7.632 z" stroke-width="0" stroke-linejoin="miter" stroke-miterlimit="2" fill="#315283" stroke="#315283" transform="translate(0 291.03700000000003) translate(625.3625750000001 57.757999999999996) scale(1.25) translate(-591.51387 39.24)"></path>
        <path id="path515318" style="font-style:normal;font-weight:normal;font-size:72px;line-height:1;font-family:'Brandmark Sans 2';font-variant-ligatures:normal;text-align:center;text-anchor:middle" d="m 658.07787,-39.312 c -5.4,0.072 -9.57599,2.448 -12.024,6.84 l -1.00799,1.728 v -22.968 h -10.94401 v 53.496 h 10.94401 v -19.008 c 0,-5.976 3.24,-9.936 8.13599,-9.936 4.39201,0 7.12801,3.096 7.12801,8.064 v 20.952 h 10.94399 v -24.48 c 0,-8.928 -5.18399,-14.688 -13.176,-14.688 z" stroke-width="0" stroke-linejoin="miter" stroke-miterlimit="2" fill="#245d97" stroke="#245d97" transform="translate(0 291.03700000000003) translate(683.597575 39.668) scale(1.25) translate(-634.10187 53.712)"></path>
      </g>
      <image xlink:href="" id="icon" style="display: none;" x="0" y="0"></image>
    </g>
  </g>
</svg>